<svg enable-background="new -61 2.6 211.1 57.4" viewBox="-61 2.6 211.1 57.4" xmlns="http://www.w3.org/2000/svg" xmlns:xlink="http://www.w3.org/1999/xlink"><linearGradient id="a" gradientTransform="matrix(.9802 -.1982 -.1982 -.9802 -.3477 40.9208)" gradientUnits="userSpaceOnUse" x1=".8009" x2="48.4576" y1="19.1592" y2="19.1592"><stop offset="0" stop-color="#ebe631"/><stop offset=".1511" stop-color="#ead04a"/><stop offset=".736" stop-color="#e77fa6"/><stop offset="1" stop-color="#e65fcb"/></linearGradient><linearGradient id="b" gradientTransform="matrix(.9802 -.1982 -.1982 -.9802 -.3477 40.9208)" gradientUnits="userSpaceOnUse" x1=".3752" x2="53.7418" y1="24.8949" y2="24.8949"><stop offset="0" stop-color="#ebe631"/><stop offset=".6334" stop-color="#a4ec5d"/><stop offset="1" stop-color="#7fef74"/></linearGradient><linearGradient id="c" gradientTransform="matrix(1 0 0 -1 0 65.124)" gradientUnits="userSpaceOnUse" x1="4.3529" x2="42.8051" y1="36.2696" y2="36.2696"><stop offset="0" stop-color="#e45fcc"/><stop offset=".4081" stop-color="#825ce0"/><stop offset=".8162" stop-color="#255af3"/><stop offset="1" stop-color="#0059fa"/></linearGradient><linearGradient id="d" gradientTransform="matrix(.9802 -.1982 -.1982 -.9802 -.3477 40.9208)" gradientUnits="userSpaceOnUse" x1="6.9295" x2="47.6669" y1="12.9995" y2="12.9995"><stop offset="0" stop-color="#9555fd"/><stop offset=".5323" stop-color="#c35be0"/><stop offset="1" stop-color="#e85fca"/></linearGradient><linearGradient id="e" gradientTransform="matrix(1 0 0 -1 0 65.124)" gradientUnits="userSpaceOnUse" x1="13.2134" x2="43.2899" y1="32.258" y2="32.258"><stop offset="0" stop-color="#58cbf8"/><stop offset=".5748" stop-color="#2394f9"/><stop offset="1" stop-color="#006ffa"/></linearGradient><path d="m41.6 21.8c-.3.1-.6.1-.9.1l-41.7-2.2c-2-.1-3.5-1.8-3.4-3.7s1.8-3.4 3.8-3.3l41.6 2.1c2 .1 3.5 1.8 3.4 3.7 0 1.7-1.3 3-2.8 3.3z" fill="url(#a)"/><path d="m-.1 19.6c-.3.1-.6.1-.9.1-2.1-.1-3.8-1.7-4-3.8s1.3-3.9 3.3-4.3l44.7-8.7c2-.4 3.9.8 4.3 2.7s-.9 3.7-2.8 4.1l-42.3 8.4c-.5.7-1.3 1.3-2.3 1.5z" fill="url(#b)"/><g enable-background="new" fill="#fff"><path d="m-43.8 35.6v14.9c0 5.9-3.6 9.3-8.5 9.3-4.1 0-7.2-2.4-8.2-6.3h4.1c.7 1.8 2.1 2.8 4.2 2.8 2.4 0 3.9-1.3 4.4-3.7-1.1.8-2.5 1.3-4.2 1.3-4.9 0-8.6-3.8-8.6-9.3s3.5-9.3 8.6-9.3c1.8 0 3.3.5 4.4 1.4v-1.1zm-3.7 9c0-3.4-1.5-5.8-4.6-5.8s-4.6 2.4-4.6 5.8 1.7 5.8 4.6 5.8 4.6-2.4 4.6-5.8z"/><path d="m-25.5 45.3v.6h-12.7c.4 2.7 2 4.5 4.6 4.5 2 0 3.5-1.1 4.3-2.8l3.3 1.4c-1.4 3-4.3 4.9-7.7 4.9-4.9 0-8.6-3.8-8.6-9.3s3.5-9.3 8.6-9.3c5.3-.1 8.2 4.1 8.2 10zm-12.6-3h8.6c-.5-2.2-1.9-3.5-4.2-3.5s-3.8 1.3-4.4 3.5z"/><path d="m-15.3 50.2v3.3c-.6.2-1.3.4-2 .4-2.8 0-4.8-2-4.8-4.8v-9.9h-2.1v-3.5h2.1v-3.5h3.9v3.5h2.9v3.5h-2.9v5.1 4.7c0 .8.7 1.3 1.9 1.3.4 0 .7 0 1-.1z"/><path d="m11.8 35.6-5.8 17.9h-4.6l-3-11.1-3.1 11.1h-4.6l-5.7-17.9h4.2l3.7 11.6 3.3-11.6h4.3l3.3 11.6 3.7-11.6z"/><path d="m29.2 44.6c0 5.5-3.6 9.3-8.5 9.3s-8.6-3.8-8.6-9.3 3.5-9.3 8.6-9.3c5-.1 8.5 3.8 8.5 9.3zm-3.9 0c0-3.4-1.5-5.8-4.6-5.8s-4.6 2.4-4.6 5.8 1.7 5.8 4.6 5.8c2.9-.1 4.6-2.5 4.6-5.8z"/><path d="m46.9 44.6c0 5.5-3.6 9.3-8.5 9.3s-8.6-3.8-8.6-9.3 3.5-9.3 8.6-9.3c5-.1 8.5 3.8 8.5 9.3zm-3.9 0c0-3.4-1.5-5.8-4.6-5.8s-4.6 2.4-4.6 5.8 1.7 5.8 4.6 5.8c2.9-.1 4.6-2.5 4.6-5.8z"/><path d="m65.4 44.6c0 5.5-3.6 9.3-8.5 9.3-1.8 0-3.3-.5-4.5-1.4v7h-3.9v-23.9h3.9v1.1c1.1-1 2.6-1.5 4.5-1.5 4.9 0 8.5 3.9 8.5 9.4zm-4 0c0-3.4-1.5-5.8-4.6-5.8s-4.6 2.4-4.6 5.8 1.7 5.8 4.6 5.8c3-.1 4.6-2.5 4.6-5.8z"/><path d="m70.8 53.5h-3.9v-23.8h3.9z"/><path d="m89.2 35.6v17.9h-3.9v-1.8c-1.1 1.4-2.7 2.1-4.8 2.1-4.3 0-7.3-3.2-7.3-7.7v-10.5h3.9v9.5c0 3.1 1.2 5.2 3.7 5.2 3 0 4.5-2.4 4.5-5.7v-9z"/><path d="m107.7 35.6v14.9c0 5.9-3.6 9.3-8.5 9.3-4.1 0-7.2-2.4-8.2-6.3h4.1c.7 1.8 2.1 2.8 4.2 2.8 2.4 0 3.9-1.3 4.4-3.7-1.1.8-2.5 1.3-4.2 1.3-4.9 0-8.6-3.8-8.6-9.3s3.5-9.3 8.6-9.3c1.8 0 3.3.5 4.4 1.4v-1.1zm-3.8 9c0-3.4-1.5-5.8-4.6-5.8s-4.6 2.4-4.6 5.8 1.7 5.8 4.6 5.8 4.6-2.4 4.6-5.8z"/><path d="m114 33.2h-4v-3.5h3.9v3.5zm0 20.3h-4v-17.9h3.9v17.9z"/><path d="m132.4 42.6v10.9h-3.9v-10c0-2.8-1.2-4.7-3.7-4.7-3 0-4.5 2.2-4.5 5.4v9.3h-3.9v-17.9h3.9v1.8c1.1-1.4 2.7-2.2 4.8-2.2 4.3 0 7.3 3.1 7.3 7.4z"/><path d="m149.4 48.2c0 3.3-3.2 5.6-7.6 5.6-4.2 0-7.4-2.5-7.6-6.1h3.9c.1 1.5 1.4 2.6 3.7 2.6 2.4 0 3.7-.9 3.7-2.1s-1.7-1.7-3.7-2.1c-4.9-1.2-7.4-2.2-7.4-5.4s2.9-5.5 7.2-5.5c3.9 0 6.8 2.3 7.2 5.7h-4c-.3-1.3-1.4-2.2-3.2-2.2-2.4 0-3.3.8-3.3 1.9s1.5 1.5 3.4 1.9c4.6 1.2 7.7 2.4 7.7 5.7z"/></g><path d="m38.6 33.7c.9 0 1.8.1 2.6.4.8-.5 1.4-1.4 1.6-2.4.3-1.9-1.1-3.7-3.1-4l-31.2-4.2c-2-.3-3.8 1.1-4.1 3s1.1 3.7 3.1 4l28.1 3.8c.9-.4 1.9-.6 3-.6z" fill="url(#c)"/><path d="m8.7 30.4c-.4.1-.8.1-1.2 0-2-.3-3.5-1.9-3.6-3.9s1.4-3.7 3.4-4.1l30.5-6c.7-1 1.9-1.7 3.3-1.6 2.1.1 3.8 1.7 4 3.8s-1.3 3.9-3.3 4.3l-30.6 6c-.7.7-1.5 1.3-2.5 1.5z" fill="url(#d)"/><path d="m38.6 33.7c1.3 0 2.5.3 3.6.8.7-.8 1.2-1.8 1.1-2.9-.1-2-1.6-3.6-3.6-3.9-1.4-.2-2.8.5-3.6 1.6l-20 3.9c-2 .4-3.2 2.2-2.8 4.1 0 .2.1.4.2.6 1.5-2.6 4.1-4.3 7.3-4.3 3.3 0 5.9 1.6 7.3 4.3l3.4-.7c1.6-2.1 4.1-3.5 7.1-3.5z" fill="url(#e)"/></svg>